<svg width="282" height="263" viewBox="0 0 282 263" fill="none" xmlns="http://www.w3.org/2000/svg">
<rect width="281.73" height="263" rx="131.5" fill="#6C63FF"/>
<path d="M177.627 132.47C176.474 132.059 175.311 131.678 174.14 131.328C174.337 130.493 174.518 129.667 174.679 128.856C177.319 115.537 175.593 104.807 169.698 101.275C164.046 97.8878 154.803 101.419 145.468 109.863C144.548 110.696 143.649 111.554 142.771 112.435C142.183 111.849 141.584 111.275 140.976 110.712C131.192 101.684 121.386 97.879 115.498 101.422C109.851 104.819 108.179 114.906 110.556 127.528C110.792 128.779 111.059 130.022 111.356 131.258C109.968 131.668 108.629 132.105 107.347 132.569C95.8766 136.725 88.5515 143.239 88.5515 149.995C88.5515 156.973 96.4153 163.972 108.362 168.216C109.331 168.559 110.307 168.877 111.291 169.169C110.972 170.5 110.688 171.84 110.44 173.188C108.175 185.591 109.944 195.44 115.576 198.816C121.392 202.302 131.154 198.719 140.66 190.083C141.43 189.38 142.184 188.658 142.92 187.917C143.872 188.871 144.848 189.797 145.849 190.694C155.057 198.929 164.15 202.254 169.776 198.869C175.587 195.373 177.476 184.793 175.024 171.921C174.831 170.913 174.614 169.909 174.374 168.912C175.06 168.701 175.733 168.483 176.389 168.257C188.809 163.981 196.89 157.067 196.89 149.995C196.89 143.214 189.328 136.657 177.627 132.47V132.47ZM174.933 163.692C174.341 163.896 173.733 164.092 173.114 164.283C171.743 159.772 169.892 154.975 167.628 150.019C169.789 145.18 171.568 140.445 172.9 135.963C174.009 136.296 175.084 136.648 176.121 137.018C186.146 140.606 192.262 145.909 192.262 149.995C192.262 154.348 185.657 159.999 174.933 163.692V163.692ZM170.484 172.855C171.568 178.547 171.723 183.693 171.005 187.716C170.36 191.331 169.062 193.741 167.457 194.707C164.043 196.761 156.742 194.091 148.868 187.048C147.937 186.214 147.028 185.353 146.143 184.466C149.196 180.996 152.247 176.963 155.225 172.482C160.462 172 165.41 171.21 169.897 170.132C170.118 171.058 170.315 171.967 170.484 172.855V172.855ZM125.486 194.352C122.151 195.576 119.494 195.611 117.888 194.648C114.471 192.6 113.05 184.692 114.988 174.085C115.218 172.832 115.482 171.585 115.779 170.347C120.216 171.367 125.128 172.101 130.378 172.544C133.376 176.927 136.515 180.957 139.678 184.485C139.006 185.161 138.318 185.82 137.614 186.461C133.411 190.28 129.199 192.989 125.486 194.352V194.352ZM109.859 163.665C104.577 161.788 100.214 159.349 97.2237 156.688C94.5364 154.297 93.18 151.922 93.18 149.995C93.18 145.895 99.0612 140.666 108.87 137.111C110.061 136.68 111.307 136.273 112.6 135.892C113.956 140.475 115.734 145.267 117.88 150.112C115.706 155.03 113.902 159.898 112.533 164.535C111.635 164.268 110.744 163.978 109.859 163.665V163.665ZM115.098 126.604C113.062 115.79 114.414 107.632 117.817 105.585C121.441 103.404 129.456 106.513 137.903 114.309C138.454 114.819 138.996 115.338 139.528 115.868C136.381 119.381 133.271 123.381 130.299 127.739C125.204 128.23 120.327 129.018 115.843 130.074C115.566 128.924 115.318 127.767 115.098 126.605V126.604ZM161.83 138.598C160.771 136.696 159.672 134.819 158.535 132.967C161.992 133.421 165.304 134.024 168.414 134.761C167.481 137.872 166.317 141.123 164.947 144.457C163.946 142.483 162.906 140.529 161.83 138.598V138.598ZM142.773 119.306C144.907 121.71 147.045 124.393 149.148 127.305C144.882 127.096 140.609 127.095 136.343 127.302C138.448 124.417 140.605 121.738 142.773 119.306ZM123.593 138.631C122.53 140.547 121.51 142.488 120.535 144.453C119.187 141.131 118.034 137.865 117.092 134.71C120.183 133.991 123.48 133.404 126.914 132.958C125.765 134.821 124.657 136.713 123.593 138.63V138.631ZM127.013 167.375C123.464 166.963 120.119 166.406 117.028 165.707C117.985 162.496 119.163 159.16 120.54 155.766C121.52 157.733 122.544 159.676 123.611 161.593C124.709 163.563 125.846 165.493 127.013 167.375ZM142.9 181.023C140.707 178.564 138.519 175.842 136.382 172.916C138.457 173 140.571 173.043 142.721 173.043C144.929 173.043 147.112 172.992 149.26 172.892C147.151 175.872 145.021 178.597 142.9 181.023ZM164.99 155.593C166.439 159.024 167.659 162.342 168.628 165.498C165.487 166.243 162.096 166.843 158.522 167.289C159.667 165.402 160.776 163.492 161.848 161.56C162.938 159.595 163.986 157.606 164.99 155.593V155.593ZM157.839 159.156C156.198 162.119 154.465 165.026 152.642 167.872C149.34 168.115 146.031 168.235 142.721 168.234C139.349 168.234 136.07 168.125 132.912 167.912C131.041 165.072 129.275 162.161 127.616 159.183H127.617C125.966 156.22 124.424 153.194 122.994 150.11C124.42 147.026 125.958 143.998 127.603 141.033L127.602 141.034C129.247 138.068 130.999 135.169 132.856 132.342C136.077 132.089 139.381 131.957 142.72 131.957H142.721C146.075 131.957 149.383 132.09 152.604 132.345C154.442 135.168 156.183 138.057 157.824 141.008C159.475 143.966 161.032 146.979 162.494 150.042C161.047 153.137 159.495 156.177 157.839 159.156V159.156ZM167.387 105.442C171.014 107.616 172.425 116.385 170.146 127.885C170 128.618 169.837 129.366 169.659 130.123C165.164 129.045 160.283 128.243 155.173 127.745C152.196 123.339 149.112 119.333 146.015 115.866C146.827 115.053 147.658 114.261 148.507 113.491C156.505 106.257 163.981 103.4 167.387 105.442V105.442ZM142.721 139.941C148.063 139.941 152.395 144.442 152.395 149.995C152.395 155.548 148.063 160.05 142.721 160.05C137.378 160.05 133.046 155.548 133.046 149.995C133.046 144.442 137.378 139.941 142.721 139.941V139.941Z" fill="#F4ABBA"/>
<path d="M177.231 78.9634C177.239 79.6316 177.05 80.5052 176.854 81.2253C175.482 86.2899 169.391 91.9731 160.817 91.456C153.046 90.9885 146.717 87.5791 146.717 82.7978C146.717 78.0166 153.031 74.1396 160.817 74.1396C168.603 74.1396 177.182 74.1821 177.231 78.9634V78.9634Z" fill="#EA596E"/>
<path d="M160.817 74.9429C156.634 74.9429 147.089 76.0006 144.898 76.0006C141.029 76.0006 137.89 78.2201 137.89 80.959C137.89 82.2765 138.629 83.4665 139.812 84.3543C139.812 84.3543 142.411 86.7366 147.092 85.5938C149.14 85.0933 152.473 81.3769 158.339 80.7866C161.261 80.4915 166.735 82.5575 176.356 82.607C176.769 81.7948 176.854 81.2305 176.854 81.2305C176.854 76.4445 168.603 74.9429 160.817 74.9429Z" fill="#DD2E44"/>
<path d="M176.854 81.2265C176.854 81.2265 182.496 80.1805 186.004 75.9636C190.094 71.0454 189.556 65.7825 189.556 65.7825C193.7 58.6991 188.265 52.0573 188.265 52.0573C187.725 44.5797 182.667 41.4819 182.667 41.4819C179.383 34.349 172.119 32.4318 172.119 32.4318C166.415 26.333 156.296 26.529 156.296 26.529C156.296 26.529 146.815 23.3533 133.8 26.9233C131.648 27.5136 124.436 28.8901 119.161 31.8415C102.534 41.1443 101.276 55.651 101.509 58.0097C102.798 71.1918 112.917 73.5529 119.375 74.9294C120.881 78.6671 126.425 85.5544 136.381 82.9973C148.652 81.0305 153.819 77.6848 156.833 77.6848C159.848 77.6848 168.244 80.6362 176.854 81.2265Z" fill="#F4ABBA"/>
<path d="M145.821 60.0296C151.835 57.0664 155.095 57.3427 157.973 57.5812C158.887 57.6567 159.753 57.7157 160.628 57.711C165.754 57.6048 169.905 55.6309 171.742 53.7207C171.952 53.4834 172.054 53.1807 172.026 52.8762C171.998 52.5717 171.842 52.2889 171.591 52.0871C171.34 51.8854 171.013 51.7803 170.679 51.7939C170.345 51.8075 170.03 51.9387 169.799 52.16C168.383 53.6334 164.893 55.2602 160.569 55.3499C159.794 55.3712 159.016 55.3003 158.21 55.2318C155.123 54.9698 151.29 54.6486 144.594 57.9518C142.876 58.7995 140.52 59.1135 137.967 59.3496C132.292 51.8625 135.707 45.3411 136.683 43.7875C136.779 43.7923 136.872 43.8206 136.97 43.8206C138.003 43.8206 139.042 43.5892 139.982 43.1028C140.269 42.9434 140.476 42.6884 140.561 42.3918C140.645 42.0952 140.6 41.7801 140.435 41.5133C140.27 41.2465 139.998 41.0488 139.676 40.9621C139.354 40.8754 139.008 40.9064 138.711 41.0486C137.899 41.4575 136.947 41.5711 136.047 41.3667C135.146 41.1623 134.363 40.655 133.855 39.946C133.663 39.6984 133.373 39.528 133.047 39.4701C132.721 39.4121 132.384 39.4712 132.104 39.635C131.824 39.7988 131.625 40.0547 131.546 40.3496C131.467 40.6445 131.516 40.9557 131.682 41.2186C132.294 42.0946 133.157 42.7534 134.131 43.1949C132.785 45.693 130.23 52.2616 135.092 59.607C131.672 59.9139 128.246 60.3555 125.565 61.935C123.68 63.0637 122.036 64.4966 120.713 66.1638C119.088 65.9088 113.139 64.57 112.1 58.535C112.746 58.077 113.268 57.4725 113.591 56.7264C113.653 56.5822 113.684 56.4282 113.681 56.2732C113.679 56.1182 113.643 55.9651 113.575 55.8228C113.508 55.6805 113.41 55.5518 113.289 55.4439C113.167 55.336 113.023 55.2511 112.865 55.1941C112.707 55.137 112.539 55.1089 112.369 55.1114C112.2 55.1138 112.032 55.1468 111.876 55.2084C111.721 55.2701 111.58 55.3591 111.462 55.4705C111.344 55.5818 111.251 55.7134 111.188 55.8575C111.091 56.1057 110.935 56.3316 110.733 56.5195C110.53 56.7074 110.286 56.8529 110.016 56.946C109.742 57.0291 109.452 57.0574 109.165 57.0289C108.879 57.0003 108.602 56.9157 108.355 56.7807C108.206 56.7054 108.043 56.6575 107.875 56.6397C107.706 56.622 107.536 56.6347 107.372 56.6772C107.043 56.7631 106.764 56.9651 106.598 57.2388C106.431 57.5124 106.391 57.8353 106.485 58.1364C106.579 58.4375 106.8 58.6922 107.099 58.8443C107.833 59.2174 108.618 59.4063 109.398 59.4063C109.494 59.4063 109.584 59.3661 109.68 59.3614C110.909 65.0588 115.836 67.5616 119.321 68.3195C118.864 69.207 118.575 70.1585 118.466 71.1339C118.436 71.4458 118.542 71.7558 118.762 71.9958C118.982 72.2357 119.297 72.3861 119.639 72.4136L119.755 72.4184C120.078 72.4183 120.389 72.3078 120.627 72.1085C120.865 71.9092 121.013 71.6357 121.041 71.3417C121.32 68.4777 124.309 65.4862 126.965 63.916C129.455 62.4498 133.1 62.1405 136.629 61.8406C140.052 61.5549 143.286 61.281 145.821 60.0296V60.0296ZM179.058 56.4785C178.976 56.6146 178.925 56.7641 178.907 56.9183C178.889 57.0725 178.904 57.2285 178.952 57.3774C178.999 57.5263 179.079 57.6651 179.185 57.7859C179.291 57.9068 179.423 58.0073 179.572 58.0817C179.721 58.1561 179.884 58.203 180.053 58.2197C180.222 58.2363 180.392 58.2224 180.555 58.1788C180.884 58.0907 181.162 57.8868 181.326 57.6118C181.375 57.5316 186.084 49.4684 177.268 44.0496C176.983 43.8749 176.635 43.8106 176.298 43.8708C175.962 43.931 175.666 44.1109 175.475 44.3707C175.284 44.6306 175.213 44.9492 175.279 45.2565C175.345 45.5638 175.542 45.8346 175.826 46.0093C182.656 50.2074 179.208 56.2235 179.058 56.4785ZM125.513 37.4149C125.718 37.4155 125.92 37.3713 126.103 37.2858C126.285 37.2004 126.443 37.0762 126.562 36.9238C130.308 32.1614 135.495 33.7906 135.715 33.8661C136.033 33.9621 136.379 33.9414 136.681 33.8082C136.983 33.6751 137.216 33.44 137.332 33.1526C137.447 32.8652 137.436 32.548 137.301 32.2679C137.165 31.9878 136.916 31.7667 136.606 31.6514C134.126 30.8109 128.399 30.5464 124.464 35.5473C124.326 35.7236 124.244 35.9314 124.226 36.1477C124.209 36.364 124.257 36.5805 124.365 36.7734C124.474 36.9664 124.638 37.1283 124.841 37.2415C125.043 37.3546 125.276 37.4146 125.513 37.4149V37.4149ZM159.282 32.9571C165.03 32.5298 167.645 36.3382 167.763 36.5177C167.937 36.7879 168.221 36.984 168.553 37.0628C168.717 37.1018 168.888 37.1109 169.057 37.0895C169.225 37.068 169.387 37.0166 169.533 36.938C169.679 36.8594 169.807 36.7552 169.91 36.6313C170.012 36.5075 170.087 36.3665 170.129 36.2163C170.172 36.0661 170.182 35.9097 170.159 35.756C170.135 35.6023 170.079 35.4544 169.993 35.3206C169.853 35.1057 166.531 30.0836 159.081 30.6031C158.912 30.6152 158.747 30.6576 158.596 30.7279C158.445 30.7982 158.31 30.8951 158.2 31.0129C157.977 31.2509 157.867 31.56 157.894 31.8722C157.921 32.1844 158.082 32.474 158.342 32.6775C158.603 32.881 158.941 32.9815 159.282 32.9571V32.9571ZM182.92 67.4553C182.284 67.4223 181.584 67.8827 181.527 68.5343C181.522 68.5768 181.112 72.5931 176.593 73.9507C176.298 74.0356 176.046 74.2148 175.883 74.4556C175.72 74.6963 175.658 74.9826 175.707 75.2621C175.756 75.5415 175.914 75.7954 176.151 75.9773C176.388 76.1592 176.689 76.257 176.999 76.2528C177.136 76.2528 177.272 76.2329 177.402 76.1938C183.53 74.3568 184.082 68.9593 184.103 68.7303C184.13 68.418 184.021 68.1086 183.799 67.8697C183.578 67.6308 183.261 67.4818 182.92 67.4553Z" fill="#EA596E"/>
<path d="M118.98 55.9828C118.929 56.1343 118.912 56.2936 118.93 56.4512C118.948 56.6087 119.001 56.7614 119.084 56.9001C119.168 57.0387 119.282 57.1605 119.418 57.2582C119.555 57.3559 119.711 57.4275 119.879 57.4687C120.046 57.5099 120.221 57.5199 120.393 57.4981C120.564 57.4763 120.73 57.4232 120.878 57.3418C121.027 57.2604 121.156 57.1525 121.258 57.0245C121.361 56.8965 121.434 56.751 121.473 56.5967C121.722 55.7786 122.3 55.0769 123.092 54.6328C123.883 54.1886 124.83 54.0349 125.741 54.2025C125.907 54.2343 126.078 54.2359 126.245 54.2072C126.411 54.1784 126.57 54.12 126.712 54.0351C126.854 53.9503 126.977 53.8407 127.072 53.7126C127.168 53.5846 127.235 53.4406 127.27 53.2888C127.305 53.137 127.306 52.9804 127.275 52.8281C127.243 52.6757 127.18 52.5304 127.087 52.4006C126.994 52.2708 126.874 52.159 126.734 52.0716C126.594 51.9841 126.436 51.9228 126.27 51.891C125.195 51.6917 124.081 51.7618 123.046 52.0941C120.034 47.386 120.62 42.7441 120.628 42.6945C120.672 42.3844 120.58 42.071 120.373 41.8224C120.165 41.5739 119.859 41.4104 119.52 41.3675C119.181 41.3278 118.84 41.4112 118.568 41.5998C118.296 41.7884 118.117 42.0671 118.068 42.3757C118.034 42.6047 117.345 47.8441 120.814 53.2699C119.928 53.993 119.291 54.9354 118.98 55.9828V55.9828ZM147.859 50.1509C148.375 49.722 149.049 49.4873 149.746 49.4939C150.443 49.5004 151.112 49.7478 151.618 50.1863C151.864 50.403 152.195 50.5219 152.537 50.5171C152.879 50.5122 153.205 50.384 153.444 50.1603C153.683 49.9358 153.814 49.6338 153.809 49.3208C153.805 49.0077 153.664 48.7092 153.418 48.491C152.835 47.9836 152.13 47.6077 151.359 47.3931C152.124 44.9942 151.822 43.9293 151.111 41.9342C150.971 41.5438 150.836 41.1519 150.706 40.7584L150.628 40.5222C149.688 37.67 149.065 35.7882 150.853 33.132C151.033 32.8652 151.089 32.5442 151.009 32.2396C150.93 31.9349 150.721 31.6716 150.429 31.5075C150.138 31.3435 149.786 31.2921 149.453 31.3647C149.12 31.4373 148.832 31.628 148.652 31.8948C146.255 35.4553 147.136 38.121 148.156 41.207L148.234 41.4431C148.386 41.9011 148.526 42.3025 148.655 42.6638C149.293 44.4606 149.487 45.0627 148.706 47.2349C147.731 47.3971 146.826 47.8099 146.097 48.4249C145.856 48.6404 145.716 48.9337 145.708 49.2421C145.7 49.5505 145.825 49.8494 146.055 50.0749C146.285 50.3005 146.603 50.4347 146.94 50.4489C147.277 50.4631 147.607 50.3561 147.859 50.1509V50.1509ZM164.302 43.1029C165.069 43.1051 165.827 42.951 166.521 42.652C166.831 42.5186 167.07 42.2781 167.186 41.9834C167.302 41.6887 167.286 41.364 167.14 41.0807C166.994 40.7973 166.731 40.5785 166.408 40.4725C166.086 40.3664 165.731 40.3818 165.421 40.5152C164.785 40.7803 164.064 40.8165 163.401 40.6164C162.738 40.4164 162.183 39.9948 161.845 39.4361C161.768 39.2943 161.661 39.168 161.53 39.0648C161.399 38.9615 161.246 38.8835 161.081 38.8352C160.916 38.787 160.742 38.7695 160.57 38.7839C160.398 38.7983 160.23 38.8442 160.077 38.9189C159.925 38.9937 159.79 39.0957 159.682 39.219C159.573 39.3422 159.492 39.4841 159.445 39.6364C159.398 39.7886 159.384 39.9479 159.406 40.105C159.427 40.2621 159.483 40.4136 159.569 40.5506C160.034 41.3439 160.727 41.9696 161.533 42.4041C160.145 45.4853 160.933 48.7578 161.577 50.4932C161.626 50.6455 161.708 50.7872 161.818 50.9097C161.929 51.0323 162.065 51.1332 162.22 51.2064C162.374 51.2796 162.542 51.3237 162.716 51.336C162.889 51.3482 163.063 51.3284 163.228 51.2777C163.392 51.227 163.544 51.1465 163.674 51.041C163.804 50.9354 163.909 50.807 163.983 50.6635C164.057 50.5199 164.099 50.3641 164.106 50.2055C164.113 50.0468 164.085 49.8885 164.023 49.74C163.589 48.5642 162.747 45.5939 164.018 43.0675C164.116 43.0722 164.206 43.1029 164.302 43.1029V43.1029ZM176.694 65.3659C176.684 65.2108 176.641 65.0591 176.566 64.9195C176.492 64.7799 176.388 64.6552 176.26 64.5526C176.133 64.4501 175.984 64.3717 175.823 64.322C175.662 64.2723 175.492 64.2523 175.322 64.2632C174.703 64.3023 174.081 64.2292 173.493 64.0481C172.904 63.867 172.361 63.5814 171.894 63.2078C171.426 62.8342 171.044 62.3799 170.769 61.871C170.495 61.3621 170.333 60.8086 170.293 60.2423C170.264 59.9318 170.104 59.6438 169.847 59.439C169.59 59.2341 169.256 59.1285 168.916 59.1443C168.574 59.1667 168.256 59.3116 168.031 59.5474C167.806 59.7831 167.692 60.0906 167.715 60.4028C167.82 61.7959 168.402 63.052 169.285 64.0743C167.208 66.3079 164.488 66.9431 162.972 67.106C161.631 67.2524 160.458 67.1272 159.102 66.9809C157.859 66.851 156.454 66.7022 154.715 66.7495L154.702 66.7518C154.651 66.0766 154.475 65.092 153.914 64.2727C153.722 64.03 153.435 63.8634 153.113 63.8063C152.791 63.7493 152.457 63.8061 152.18 63.9654C151.902 64.1246 151.7 64.3744 151.616 64.6642C151.532 64.954 151.571 65.2622 151.726 65.5264C152.072 66.0341 152.137 66.8439 152.137 67.2382C150.835 67.6656 149.709 68.2936 148.691 68.9004C146.872 69.9818 145.438 70.8366 143.281 70.3927C141.328 69.9842 139.373 69.9016 137.714 70.1141C137.456 69.5214 137.048 68.8131 136.417 68.2677C136.168 68.0526 135.836 67.9367 135.494 67.9456C135.151 67.9544 134.826 68.0873 134.591 68.3149C134.356 68.5425 134.229 68.8463 134.239 69.1593C134.248 69.4724 134.394 69.7691 134.643 69.9842C134.865 70.1754 135.041 70.4541 135.183 70.7327C132.333 71.8046 130.905 73.5967 130.837 73.6841C130.7 73.8604 130.619 74.0677 130.602 74.2835C130.586 74.4992 130.634 74.7149 130.743 74.9071C130.852 75.0992 131.016 75.2604 131.218 75.3728C131.42 75.4853 131.652 75.5447 131.889 75.5446C132.093 75.5451 132.294 75.5015 132.477 75.4174C132.659 75.3333 132.817 75.211 132.938 75.0606C132.951 75.0417 134.369 73.3063 137.167 72.605C138.613 72.2414 140.688 72.2721 142.71 72.6924C143.276 72.8104 143.801 72.8506 144.31 72.8577C144.55 73.3724 144.643 73.9839 144.656 74.2106C144.675 74.5115 144.819 74.7944 145.058 75.0015C145.298 75.2086 145.615 75.3243 145.945 75.325L146.015 75.3227C146.355 75.3062 146.675 75.167 146.904 74.9356C147.133 74.7042 147.253 74.3994 147.236 74.0878C147.193 73.5378 147.081 72.9943 146.901 72.4681C148.092 72.0738 149.127 71.4575 150.101 70.8791C151.579 69.9984 152.977 69.1649 154.803 69.1106C156.332 69.061 157.593 69.1956 158.81 69.3254C160.034 69.4553 161.238 69.5403 162.566 69.4695C162.801 70.0668 162.783 70.8649 162.747 71.1317C162.725 71.2979 162.742 71.4665 162.796 71.6264C162.851 71.7863 162.941 71.9338 163.063 72.0593C163.184 72.1849 163.333 72.2856 163.5 72.3548C163.667 72.424 163.847 72.4602 164.031 72.461C164.344 72.4606 164.646 72.3562 164.881 72.1672C165.117 71.9783 165.269 71.7177 165.309 71.4339C165.404 70.6595 165.352 69.8761 165.157 69.1177C167.514 68.5461 169.626 67.3352 171.215 65.6445C172.496 66.3675 173.991 66.7083 175.493 66.6196C175.662 66.6094 175.827 66.5689 175.979 66.5003C176.131 66.4318 176.266 66.3366 176.378 66.2202C176.489 66.1038 176.575 65.9684 176.629 65.8218C176.683 65.6752 176.705 65.5203 176.694 65.3659V65.3659Z" fill="#EA596E"/>
</svg>
